REM DIRINDEX 1\2\6,1\2\7,1\2\8,1\2\9,1\3\10,1\3\11,1\4\12,1\4\13,1\4\14,1\5\15,1\5\16,1\5\17
REM DIRNAME folder01,folder02,folder03,folder04,folder05,folder06,folder07,folder08,folder09,folder10,folder11,folder12,folder13,folder14,folder15,folder16,folder17
TITLE ""
FILE "1900_3_105 sec18_1777_1800.mp3" MP3
  TRACK 01 AUDIO
    TITLE "0:"
    INDEX 01 00:00:00
  TRACK 02 AUDIO
    TITLE "17:cjc020_9539"
    INDEX 01 00:00:11
  TRACK 03 AUDIO
    TITLE "0:"
    INDEX 01 00:01:38
  TRACK 04 AUDIO
    TITLE "16:cjc020_9540"
    INDEX 01 00:01:44
  TRACK 05 AUDIO
    TITLE "0:"
    INDEX 01 00:03:04
  TRACK 06 AUDIO
    TITLE "17:cjc020_9541"
    INDEX 01 00:03:64
  TRACK 07 AUDIO
    TITLE "0:"
    INDEX 01 00:05:20
  TRACK 08 AUDIO
    TITLE "16:cjc020_9542"
    INDEX 01 00:05:26
  TRACK 09 AUDIO
    TITLE "0:"
    INDEX 01 00:06:41
  TRACK 10 AUDIO
    TITLE "17:cjc020_9543"
    INDEX 01 00:07:27
  TRACK 11 AUDIO
    TITLE "0:"
    INDEX 01 00:08:32
  TRACK 12 AUDIO
    TITLE "16:cjc020_9544"
    INDEX 01 00:08:36
  TRACK 13 AUDIO
    TITLE "0:"
    INDEX 01 00:09:34
  TRACK 14 AUDIO
    TITLE "17:cjc020_9545"
    INDEX 01 00:10:19
  TRACK 15 AUDIO
    TITLE "0:"
    INDEX 01 00:11:29
  TRACK 16 AUDIO
    TITLE "16:cjc020_9546"
    INDEX 01 00:11:35
  TRACK 17 AUDIO
    TITLE "0:"
    INDEX 01 00:12:46
  TRACK 18 AUDIO
    TITLE "17:cjc020_9547"
    INDEX 01 00:13:35
  TRACK 19 AUDIO
    TITLE "0:"
    INDEX 01 00:14:43
  TRACK 20 AUDIO
    TITLE "16:cjc020_9548"
    INDEX 01 00:14:49
  TRACK 21 AUDIO
    TITLE "0:"
    INDEX 01 00:15:62
  TRACK 22 AUDIO
    TITLE "17:cjc020_9549"
    INDEX 01 00:16:48
  TRACK 23 AUDIO
    TITLE "0:"
    INDEX 01 00:17:65
  TRACK 24 AUDIO
    TITLE "16:cjc020_9550"
    INDEX 01 00:17:69
  TRACK 25 AUDIO
    TITLE "0:"
    INDEX 01 00:19:03
  TRACK 26 AUDIO
    TITLE "17:cjc020_9551"
    INDEX 01 00:19:62
  TRACK 27 AUDIO
    TITLE "0:"
    INDEX 01 00:21:02
  TRACK 28 AUDIO
    TITLE "16:cjc020_9552"
    INDEX 01 00:21:11
  TRACK 29 AUDIO
    TITLE "0:"
    INDEX 01 00:22:25
  TRACK 30 AUDIO
    TITLE "17:cjc020_9553"
    INDEX 01 00:23:10
  TRACK 31 AUDIO
    TITLE "0:"
    INDEX 01 00:24:39
  TRACK 32 AUDIO
    TITLE "16:cjc020_9554"
    INDEX 01 00:24:43
  TRACK 33 AUDIO
    TITLE "0:"
    INDEX 01 00:25:50
  TRACK 34 AUDIO
    TITLE "17:cjc020_9555"
    INDEX 01 00:26:34
  TRACK 35 AUDIO
    TITLE "0:"
    INDEX 01 00:27:63
  TRACK 36 AUDIO
    TITLE "16:cjc020_9556"
    INDEX 01 00:27:69
  TRACK 37 AUDIO
    TITLE "0:"
    INDEX 01 00:29:19
  TRACK 38 AUDIO
    TITLE "17:cjc020_9557"
    INDEX 01 00:30:06
  TRACK 39 AUDIO
    TITLE "0:"
    INDEX 01 00:31:43
  TRACK 40 AUDIO
    TITLE "16:cjc020_9558"
    INDEX 01 00:31:53
  TRACK 41 AUDIO
    TITLE "0:"
    INDEX 01 00:32:66
  TRACK 42 AUDIO
    TITLE "17:cjc020_9559"
    INDEX 01 00:33:46
  TRACK 43 AUDIO
    TITLE "0:"
    INDEX 01 00:34:59
  TRACK 44 AUDIO
    TITLE "16:cjc020_9560"
    INDEX 01 00:34:61
  TRACK 45 AUDIO
    TITLE "0:"
    INDEX 01 00:35:64
  TRACK 46 AUDIO
    TITLE "17:cjc020_9561"
    INDEX 01 00:36:48
  TRACK 47 AUDIO
    TITLE "0:"
    INDEX 01 00:38:08
  TRACK 48 AUDIO
    TITLE "16:cjc020_9562"
    INDEX 01 00:38:10
  TRACK 49 AUDIO
    TITLE "0:"
    INDEX 01 00:39:29
  TRACK 50 AUDIO
    TITLE "17:cjc020_9563"
    INDEX 01 00:40:15
  TRACK 51 AUDIO
    TITLE "0:"
    INDEX 01 00:41:26
  TRACK 52 AUDIO
    TITLE "16:cjc020_9564"
    INDEX 01 00:41:28
  TRACK 53 AUDIO
    TITLE "0:"
    INDEX 01 00:42:27
  TRACK 54 AUDIO
    TITLE "17:cjc020_9565"
    INDEX 01 00:43:09
  TRACK 55 AUDIO
    TITLE "0:"
    INDEX 01 00:44:42
  TRACK 56 AUDIO
    TITLE "16:cjc020_9566"
    INDEX 01 00:44:44
  TRACK 57 AUDIO
    TITLE "0:"
    INDEX 01 00:45:49
  TRACK 58 AUDIO
    TITLE "17:cjc020_9567"
    INDEX 01 00:46:31
  TRACK 59 AUDIO
    TITLE "0:"
    INDEX 01 00:47:50
  TRACK 60 AUDIO
    TITLE "16:cjc020_9568"
    INDEX 01 00:47:52
  TRACK 61 AUDIO
    TITLE "0:"
    INDEX 01 00:49:04
  TRACK 62 AUDIO
    TITLE "17:cjc020_9569"
    INDEX 01 00:49:67
  TRACK 63 AUDIO
    TITLE "0:"
    INDEX 01 00:51:09
  TRACK 64 AUDIO
    TITLE "16:cjc020_9570"
    INDEX 01 00:51:16
  TRACK 65 AUDIO
    TITLE "0:"
    INDEX 01 00:52:37
  TRACK 66 AUDIO
    TITLE "17:cjc020_9571"
    INDEX 01 00:53:21
  TRACK 67 AUDIO
    TITLE "0:"
    INDEX 01 00:54:52
  TRACK 68 AUDIO
    TITLE "16:cjc020_9572"
    INDEX 01 00:54:58
  TRACK 69 AUDIO
    TITLE "0:"
    INDEX 01 00:55:69
  TRACK 70 AUDIO
    TITLE "17:cjc020_9573"
    INDEX 01 00:56:53
  TRACK 71 AUDIO
    TITLE "0:"
    INDEX 01 00:58:01
  TRACK 72 AUDIO
    TITLE "16:cjc020_9574"
    INDEX 01 00:58:07
  TRACK 73 AUDIO
    TITLE "0:"
    INDEX 01 00:59:10
  TRACK 74 AUDIO
    TITLE "17:cjc020_9575"
    INDEX 01 00:59:69
  TRACK 75 AUDIO
    TITLE "0:"
    INDEX 01 01:01:29
  TRACK 76 AUDIO
    TITLE "16:cjc020_9576"
    INDEX 01 01:01:40
  TRACK 77 AUDIO
    TITLE "0:"
    INDEX 01 01:02:67
  TRACK 78 AUDIO
    TITLE "17:cjc020_9577"
    INDEX 01 01:03:51
  TRACK 79 AUDIO
    TITLE "0:"
    INDEX 01 01:04:72
  TRACK 80 AUDIO
    TITLE "16:cjc020_9578"
    INDEX 01 01:05:05
  TRACK 81 AUDIO
    TITLE "0:"
    INDEX 01 01:06:22
  TRACK 82 AUDIO
    TITLE "17:cjc020_9579"
    INDEX 01 01:07:10
  TRACK 83 AUDIO
    TITLE "0:"
    INDEX 01 01:08:27
  TRACK 84 AUDIO
    TITLE "16:cjc020_9580"
    INDEX 01 01:08:31
  TRACK 85 AUDIO
    TITLE "0:"
    INDEX 01 01:09:44
  TRACK 86 AUDIO
    TITLE "17:cjc020_9581"
    INDEX 01 01:10:31
  TRACK 87 AUDIO
    TITLE "0:"
    INDEX 01 01:11:72
  TRACK 88 AUDIO
    TITLE "16:cjc020_9582"
    INDEX 01 01:12:05
  TRACK 89 AUDIO
    TITLE "0:"
    INDEX 01 01:13:24
  TRACK 90 AUDIO
    TITLE "17:cjc020_9583"
    INDEX 01 01:14:10
  TRACK 91 AUDIO
    TITLE "0:"
    INDEX 01 01:16:03
  TRACK 92 AUDIO
    TITLE "16:cjc020_9584"
    INDEX 01 01:16:07
  TRACK 93 AUDIO
    TITLE "0:"
    INDEX 01 01:17:12
  TRACK 94 AUDIO
    TITLE "17:cjc020_9585"
    INDEX 01 01:17:71
  TRACK 95 AUDIO
    TITLE "0:"
    INDEX 01 01:19:15
  TRACK 96 AUDIO
    TITLE "16:cjc020_9586"
    INDEX 01 01:19:21
  TRACK 97 AUDIO
    TITLE "0:"
    INDEX 01 01:20:36
